<svg xmlns="http://www.w3.org/2000/svg" viewBox="0 0 32 32" width="32" height="32">
  <!-- Simplified dead tree for favicon -->

  <!-- Tree canopy - simple rounded wilted shape -->
  <path d="
    M16 3
    Q23 2 27 8
    Q30 13 27 18
    Q24 23 22 24
    L18 24
    L14 24
    L10 24
    Q8 23 5 18
    Q2 13 5 8
    Q9 2 16 3Z
  " fill="#c0392b"/>

  <!-- Trunk -->
  <rect x="13.5" y="23" width="5" height="7" rx="1" fill="#6B4226"/>

  <!-- Small roots -->
  <line x1="14" y1="29" x2="11" y2="31" stroke="#6B4226" stroke-width="1.5" stroke-linecap="round"/>
  <line x1="18" y1="29" x2="21" y2="31" stroke="#6B4226" stroke-width="1.5" stroke-linecap="round"/>

  <!-- Left eye X -->
  <g stroke="#1a1a2e" stroke-width="2" stroke-linecap="round">
    <line x1="9" y1="10" x2="13" y2="14"/>
    <line x1="13" y1="10" x2="9" y2="14"/>
  </g>

  <!-- Right eye X -->
  <g stroke="#1a1a2e" stroke-width="2" stroke-linecap="round">
    <line x1="19" y1="10" x2="23" y2="14"/>
    <line x1="23" y1="10" x2="19" y2="14"/>
  </g>

  <!-- Simple wavy mouth -->
  <path d="M11 18 Q13.5 15.5 16 18 Q18.5 20.5 21 18" fill="none" stroke="#1a1a2e" stroke-width="1.8" stroke-linecap="round"/>

  <!-- One falling leaf -->
  <path d="M27 20 Q25.5 18.5 26 17 Q28 18.5 27 20Z" fill="#e05530" opacity="0.7" transform="rotate(25, 27, 18)"/>
</svg>
